<?xml version="1.0" encoding="UTF-8"?>
<svg version="1.1" xmlns="http://www.w3.org/2000/svg" width="489" height="191">
<path d="M0 0 C5.61622429 4.41809644 8.27626734 9.75316836 10.875 16.25 C11.2153125 15.60933594 11.555625 14.96867187 11.90625 14.30859375 C16.63009453 5.87854141 22.26053178 -0.43697042 31.38671875 -4.09375 C38.89928298 -6.07508562 47.06894174 -5.62444442 53.875 -1.75 C61.8689622 3.3173024 65.26115679 11.09603112 67.4511528 20.0625 C68.11800414 23.50415848 68.13739585 26.9204245 68.10205078 30.41015625 C68.10234283 31.18185654 68.10263489 31.95355682 68.10293579 32.74864197 C68.10155531 35.27004703 68.08605533 37.7911473 68.0703125 40.3125 C68.0665778 42.07226398 68.06373299 43.83203006 68.06173706 45.59179688 C68.05413658 50.20149576 68.03451923 54.81106667 68.0123291 59.42071533 C67.99179309 64.13332387 67.98271882 68.84595327 67.97265625 73.55859375 C67.95126966 82.78911843 67.91717744 92.01954853 67.875 101.25 C68.62265625 101.22679687 69.3703125 101.20359375 70.140625 101.1796875 C71.12546875 101.16164063 72.1103125 101.14359375 73.125 101.125 C74.09953125 101.10179687 75.0740625 101.07859375 76.078125 101.0546875 C78.92569951 101.25354047 80.50537132 101.69561054 82.875 103.25 C84.09477329 105.68954658 84.07653813 107.40305849 84.125 110.125 C84.16367187 111.42050781 84.16367187 111.42050781 84.203125 112.7421875 C83.79038869 115.89667216 83.23719244 117.10168816 80.875 119.25 C78.32236503 119.94480005 76.16211002 120.3615115 73.5625 120.625 C72.85843018 120.70387451 72.15436035 120.78274902 71.42895508 120.86401367 C64.44901828 121.51234618 54.98435337 122.10982836 49.05078125 117.98046875 C46.08991566 113.62278285 46.72410238 107.96896391 46.71728516 102.89892578 C46.71220444 102.07063263 46.70712372 101.24233948 46.70188904 100.38894653 C46.69121402 98.59546072 46.68258267 96.80196183 46.67576981 95.00845718 C46.66394237 92.16644678 46.64448021 89.3245857 46.62265015 86.4826355 C46.5611593 78.40400173 46.50700031 70.32538491 46.47363281 62.24658203 C46.45265486 57.29994383 46.41732968 52.35358115 46.37287521 47.40710068 C46.35874364 45.52614464 46.34999921 43.64513989 46.34682083 41.76413345 C46.34189632 39.12908449 46.31869989 36.49476356 46.29150391 33.85986328 C46.29451004 33.08872192 46.29751617 32.31758057 46.3006134 31.52307129 C46.22244994 26.40742674 45.28316721 22.79066773 42.875 18.25 C39.31844725 16.03916991 35.99863327 15.74506531 31.875 16.25 C28.65670896 18.17293518 28.65670896 18.17293518 25.875 20.25 C25.215 20.25 24.555 20.25 23.875 20.25 C23.50375 21.2709375 23.50375 21.2709375 23.125 22.3125 C21.875 25.25 21.875 25.25 19.9375 28.375 C13.98259834 38.55166031 13.72263098 50.64718905 13.77734375 62.08984375 C13.7787587 63.21193741 13.78017365 64.33403107 13.78163147 65.49012756 C13.787206 69.05594608 13.79975384 72.62170062 13.8125 76.1875 C13.81751829 78.6126293 13.82208062 81.03775959 13.82617188 83.46289062 C13.83716709 89.39194872 13.8538798 95.32096979 13.875 101.25 C14.48988281 101.23477295 15.10476562 101.2195459 15.73828125 101.20385742 C16.95064453 101.18609253 16.95064453 101.18609253 18.1875 101.16796875 C19.38826172 101.14512817 19.38826172 101.14512817 20.61328125 101.12182617 C23.71648633 101.29768786 25.51817632 102.26143002 27.875 104.25 C29.26758434 108.42775302 29.40479096 112.28977345 28.25 116.5625 C26.13491914 119.15828105 24.1215621 119.42237531 20.875 120.25 C17.37094286 120.53288905 13.88873479 120.52940364 10.375 120.5 C9.45074219 120.50773437 8.52648437 120.51546875 7.57421875 120.5234375 C2.60971415 120.50923291 -1.47318059 120.20376415 -6.125 118.25 C-8.37529401 109.48578545 -8.42013038 101.02082516 -8.42996025 92.03539467 C-8.43365977 89.31472862 -8.45048004 86.59441554 -8.47071838 83.87382507 C-8.52581091 76.14601199 -8.55685647 68.41815018 -8.58129883 60.69018555 C-8.59720277 55.94528086 -8.62743899 51.20063326 -8.66606331 46.45586205 C-8.67767479 44.65584229 -8.68364332 42.85577658 -8.68374443 41.05571938 C-8.68393725 38.53858249 -8.70225527 36.02215341 -8.72436523 33.50512695 C-8.71978806 32.76989304 -8.71521088 32.03465912 -8.710495 31.27714539 C-8.78165015 26.16207034 -9.81999941 22.72211983 -12.125 18.25 C-14.58747759 16.22725055 -16.30005191 16.23054979 -19.5 15.875 C-23.74671633 16.31431548 -25.74439916 17.73420403 -29.125 20.25 C-29.785 20.25 -30.445 20.25 -31.125 20.25 C-38.33915891 34.24413233 -41.30086555 47.13438766 -41.22265625 62.75 C-41.22053383 64.36442993 -41.22053383 64.36442993 -41.21836853 66.01147461 C-41.2128038 69.42434555 -41.20025787 72.83714913 -41.1875 76.25 C-41.18248044 78.5742178 -41.17791833 80.89843663 -41.17382812 83.22265625 C-41.16284593 88.8984602 -41.1461432 94.57422529 -41.125 100.25 C-40.51084229 100.30551025 -39.89668457 100.36102051 -39.26391602 100.41821289 C-38.45623779 100.4980542 -37.64855957 100.57789551 -36.81640625 100.66015625 C-36.01662354 100.7362915 -35.21684082 100.81242676 -34.39282227 100.89086914 C-30.82239325 101.45627996 -29.30892093 102.36158845 -27.125 105.25 C-26.48283486 108.69590401 -26.49409434 111.80296088 -27.125 115.25 C-29.31626816 118.34799981 -30.53556336 119.05352112 -34.125 120.25 C-37.08868166 120.35945938 -40.02812256 120.41405959 -42.9921875 120.41796875 C-43.86392609 120.42129715 -44.73566467 120.42462555 -45.63381958 120.42805481 C-47.47804232 120.43311699 -49.32227422 120.43546335 -51.16650391 120.43530273 C-53.98225075 120.43748624 -56.79760388 120.45564112 -59.61328125 120.47460938 C-61.40624866 120.47754407 -63.19921793 120.47952836 -64.9921875 120.48046875 C-65.83192108 120.48765427 -66.67165466 120.49483978 -67.53683472 120.50224304 C-72.9353989 120.48123896 -77.12216433 120.25283567 -81.125 116.25 C-81.42578125 113.75390625 -81.42578125 113.75390625 -81.4375 110.8125 C-81.46263672 109.36037109 -81.46263672 109.36037109 -81.48828125 107.87890625 C-81.125 105.25 -81.125 105.25 -79.73046875 103.46484375 C-76.41408766 100.95536804 -73.60093393 100.96893664 -69.5 100.6875 C-68.31148437 100.60371094 -67.12296875 100.51992187 -65.8984375 100.43359375 C-64.98320313 100.37300781 -64.06796875 100.31242187 -63.125 100.25 C-63.12722061 99.27138504 -63.12944122 98.29277008 -63.13172913 97.28450012 C-63.15200658 88.05903699 -63.16699436 78.83357839 -63.17681217 69.60809803 C-63.18202928 64.86526879 -63.1891057 60.12245755 -63.20043945 55.37963867 C-63.21130992 50.80201223 -63.21728567 46.22440311 -63.21987724 41.64676476 C-63.22172398 39.90088313 -63.22533018 38.15500244 -63.23073006 36.40912819 C-63.23799565 33.96259137 -63.23898861 31.51612596 -63.23852539 29.06958008 C-63.24212067 28.34884811 -63.24571594 27.62811615 -63.24942017 26.88554382 C-63.24190241 23.21274991 -63.00027242 19.8215114 -62.125 16.25 C-63.67960937 16.30220703 -63.67960937 16.30220703 -65.265625 16.35546875 C-66.63540042 16.38361482 -68.00519341 16.41091411 -69.375 16.4375 C-70.05691406 16.46263672 -70.73882812 16.48777344 -71.44140625 16.51367188 C-74.50136387 16.55823436 -76.79914438 16.40566351 -79.578125 15.078125 C-81.67702731 12.59760409 -81.6599555 11.03277569 -81.625 7.8125 C-81.6353125 6.86503906 -81.645625 5.91757813 -81.65625 4.94140625 C-80.96850628 1.45717519 -79.89858038 0.43697157 -77.125 -1.75 C-74.1640625 -2.26757812 -74.1640625 -2.26757812 -70.75 -2.28125 C-69.51765625 -2.28640625 -68.2853125 -2.2915625 -67.015625 -2.296875 C-65.08976562 -2.27367187 -65.08976562 -2.27367187 -63.125 -2.25 C-61.84109375 -2.26546875 -60.5571875 -2.2809375 -59.234375 -2.296875 C-58.00203125 -2.29171875 -56.7696875 -2.2865625 -55.5 -2.28125 C-53.81003906 -2.27448242 -53.81003906 -2.27448242 -52.0859375 -2.26757812 C-48.48968407 -1.63894543 -47.31176931 -0.624449 -45.125 2.25 C-44.515625 5.265625 -44.515625 5.265625 -44.375 8.5 C-44.31828125 9.57765625 -44.2615625 10.6553125 -44.203125 11.765625 C-44.17734375 12.58546875 -44.1515625 13.4053125 -44.125 14.25 C-43.58875 13.569375 -43.0525 12.88875 -42.5 12.1875 C-41.71625 11.218125 -40.9325 10.24875 -40.125 9.25 C-39.50625 8.41855469 -39.50625 8.41855469 -38.875 7.5703125 C-29.25588201 -4.72685538 -13.27286574 -9.3202844 0 0 Z M-45.125 16.25 C-44.125 18.25 -44.125 18.25 -44.125 18.25 Z " fill="#FDFDFC" transform="translate(88.125,63.75)"/>
<path d="M0 0 C2.17551984 -0.0043729 4.34900906 -0.04069876 6.52416992 -0.07861328 C7.91023071 -0.08448196 9.29630111 -0.08845101 10.68237305 -0.09033203 C12.57040649 -0.10265869 12.57040649 -0.10265869 14.49658203 -0.11523438 C18.46477401 0.47756662 19.37299472 1.1825577 21.7487793 4.37060547 C22.13662875 7.0834041 22.28337375 9.39163718 22.24707031 12.1015625 C22.25258911 12.87612289 22.25810791 13.65068329 22.26379395 14.44871521 C22.2731097 16.12869865 22.27322256 17.80875271 22.26519966 19.48874283 C22.25255783 22.1553583 22.26387262 24.82094021 22.28123474 27.48751831 C22.30796092 32.19537426 22.31353018 36.90297727 22.31213379 41.61090088 C22.30990819 49.12436135 22.324259 56.63750601 22.36771965 64.15084457 C22.37749229 66.7642375 22.36887117 69.37712708 22.35902405 71.99050903 C22.37131777 81.41079045 22.46211558 90.04394359 27.5612793 98.30810547 C33.18992453 103.61511383 38.74075875 103.90146599 46.1472168 103.71435547 C57.56322599 102.62475806 66.17868573 96.84356019 73.4987793 88.24560547 C79.34951042 80.32670892 82.76849235 70.32581387 82.95410156 60.48852539 C82.98401939 59.07762886 82.98401939 59.07762886 83.01454163 57.63822937 C83.03125412 56.63596817 83.04796661 55.63370697 83.06518555 54.60107422 C83.09635719 53.04686516 83.09635719 53.04686516 83.12815857 51.46125793 C83.1934006 48.16027282 83.25242109 44.85920998 83.3112793 41.55810547 C83.35448862 39.31656106 83.39810368 37.07502443 83.44213867 34.83349609 C83.54905596 29.3459474 83.65086892 23.85832186 83.7487793 18.37060547 C83.09804443 18.37584229 82.44730957 18.3810791 81.77685547 18.38647461 C78.83000656 18.40725485 75.88317307 18.42026897 72.9362793 18.43310547 C71.40003906 18.44567383 71.40003906 18.44567383 69.83276367 18.45849609 C68.35839844 18.46333008 68.35839844 18.46333008 66.85424805 18.46826172 C65.94827881 18.47349854 65.04230957 18.47873535 64.10888672 18.48413086 C61.7487793 18.37060547 61.7487793 18.37060547 58.7487793 17.37060547 C56.96352633 13.23404373 56.5588256 9.32037394 57.4362793 4.93310547 C58.7487793 2.37060547 58.7487793 2.37060547 61.7487793 0.37060547 C64.67500905 0.13815922 67.50367838 0.0185479 70.43237305 -0.00048828 C71.71024437 -0.01403099 71.71024437 -0.01403099 73.01393127 -0.02784729 C74.81524134 -0.04235046 76.61660409 -0.0512367 78.41796875 -0.05493164 C81.17302105 -0.06683724 83.92583981 -0.11602666 86.68041992 -0.16650391 C88.43106003 -0.17596726 90.1817139 -0.18320272 91.93237305 -0.18798828 C92.75539413 -0.2075206 93.57841522 -0.22705292 94.42637634 -0.24717712 C95.58261253 -0.23806053 95.58261253 -0.23806053 96.76220703 -0.22875977 C97.77455666 -0.23636574 97.77455666 -0.23636574 98.80735779 -0.24412537 C102.08061814 0.79231832 103.04123766 2.43362155 104.7487793 5.37060547 C105.3062298 8.56411677 105.25465783 11.69978822 105.20288086 14.93432617 C105.20346497 15.89090622 105.20404907 16.84748627 105.20465088 17.83305359 C105.2018691 20.98786994 105.17077201 24.14173587 105.1394043 27.29638672 C105.13194226 29.48641951 105.12624915 31.67645899 105.12225342 33.86650085 C105.10699429 39.62552382 105.0677096 45.3841421 105.0234375 51.14300537 C104.9824911 57.02155076 104.96424372 62.90016165 104.9440918 68.77880859 C104.90121601 80.30958518 104.83296092 91.84006165 104.7487793 103.37060547 C105.72024902 103.34740234 106.69171875 103.32419922 107.69262695 103.30029297 C108.96154785 103.28224609 110.23046875 103.26419922 111.5378418 103.24560547 C112.79806152 103.22240234 114.05828125 103.19919922 115.35668945 103.17529297 C118.7487793 103.37060547 118.7487793 103.37060547 122.1237793 105.37060547 C124.6233949 109.98528042 124.47128073 113.62510004 123.1237793 118.74560547 C120.9735801 121.28674998 118.99213761 121.55541122 115.7487793 122.37060547 C111.8913286 122.65767498 108.05275218 122.64980476 104.1862793 122.62060547 C103.15825195 122.62833984 102.13022461 122.63607422 101.07104492 122.64404297 C100.0765332 122.64146484 99.08202148 122.63888672 98.05737305 122.63623047 C97.15817139 122.63397461 96.25896973 122.63171875 95.33251953 122.62939453 C91.34401902 122.22990379 88.58985933 121.2116855 85.7487793 118.37060547 C85.42993164 116.49121094 85.42993164 116.49121094 85.3347168 114.23779297 C85.29604492 113.43212891 85.25737305 112.62646484 85.2175293 111.79638672 C85.1865918 110.95462891 85.1556543 110.11287109 85.1237793 109.24560547 C85.08510742 108.39611328 85.04643555 107.54662109 85.0065918 106.67138672 C84.91221435 104.57148863 84.82940344 102.47107656 84.7487793 100.37060547 C84.18030273 101.02287109 83.61182617 101.67513672 83.02612305 102.34716797 C71.663191 115.2087171 60.36321275 123.33741892 42.7487793 125.37060547 C31.79923377 125.67025096 22.13686722 123.06316866 13.5612793 116.11279297 C4.82197229 107.7125108 1.53603839 96.05652807 1.20288086 84.19360352 C1.14806849 81.17288284 1.14102647 78.1534716 1.1394043 75.13232422 C1.12438614 73.51420976 1.10765152 71.89611042 1.08929443 70.2780304 C1.04601585 66.06465871 1.0257107 61.8514936 1.01055908 57.63793945 C0.9908438 53.32019022 0.94889118 49.00265956 0.90893555 44.68505859 C0.83406252 36.24696541 0.78351313 27.80895901 0.7487793 19.37060547 C-0.22704102 19.31001953 -1.20286133 19.24943359 -2.20825195 19.18701172 C-3.48055664 19.10322266 -4.75286133 19.01943359 -6.0637207 18.93310547 C-7.32829102 18.85189453 -8.59286133 18.77068359 -9.89575195 18.68701172 C-13.2512207 18.37060547 -13.2512207 18.37060547 -16.2512207 17.37060547 C-18.03647367 13.23404373 -18.4411744 9.32037394 -17.5637207 4.93310547 C-14.14671366 -1.73819399 -6.48247954 -0.00146315 0 0 Z " fill="#FDFDFD" transform="translate(195.251220703125,61.62939453125)"/>
<path d="M0 0 C1.08792847 -0.01260864 2.17585693 -0.02521729 3.29675293 -0.03820801 C5.05154968 -0.02606262 5.05154968 -0.02606262 6.84179688 -0.01367188 C8.65025085 -0.01941223 8.65025085 -0.01941223 10.49523926 -0.02526855 C13.04387243 -0.02799013 15.59253341 -0.02061193 18.14111328 -0.00390625 C22.0458799 0.01749773 25.94880635 -0.00370191 29.85351562 -0.02929688 C32.32878011 -0.02665365 34.80404345 -0.02152877 37.27929688 -0.01367188 C38.44916138 -0.0217688 39.61902588 -0.02986572 40.82434082 -0.03820801 C41.91226929 -0.02559937 43.00019775 -0.01299072 44.12109375 0 C45.55527649 0.00477356 45.55527649 0.00477356 47.01843262 0.00964355 C50.30073246 0.66547307 51.49783443 1.93498661 53.56054688 4.51757812 C54.09179688 6.95507812 54.09179688 6.95507812 54.06054688 9.51757812 C54.07085937 10.36320312 54.08117187 11.20882812 54.09179688 12.08007812 C53.33823345 15.53760443 52.54847648 16.56737257 49.56054688 18.51757812 C46.12973473 19.00117665 42.76629983 18.89341787 39.31054688 18.76757812 C38.3746875 18.74953125 37.43882812 18.73148438 36.47460938 18.71289062 C34.16887672 18.66583486 31.86523743 18.60011525 29.56054688 18.51757812 C37.3838277 37.19342471 45.22579289 55.86130174 53.08984375 74.52001953 C56.59795007 82.84517826 60.09565238 91.174316 63.56054688 99.51757812 C66.19845034 96.30950155 67.78271701 93.0421673 69.41601562 89.23242188 C69.67858154 88.62387863 69.94114746 88.01533539 70.21166992 87.38835144 C71.06241085 85.41281476 71.90536964 83.43406622 72.74804688 81.45507812 C73.33725782 80.08170168 73.92685994 78.70849299 74.5168457 77.33544922 C76.20586344 73.39944951 77.88442376 69.45908638 79.56054688 65.51757812 C79.9653125 64.5667334 80.37007813 63.61588867 80.78710938 62.63623047 C82.7126559 58.10495594 84.62074077 53.56663756 86.515625 49.02246094 C87.75193054 46.05879391 88.99231874 43.09684554 90.23242188 40.13476562 C91.15449205 37.92911804 92.07636899 35.72338966 92.99804688 33.51757812 C93.43592529 32.47102051 93.87380371 31.42446289 94.32495117 30.34619141 C94.73140869 29.37149902 95.13786621 28.39680664 95.55664062 27.39257812 C95.91943115 26.52375 96.28222168 25.65492187 96.65600586 24.75976562 C97.35155398 23.0356323 97.97263337 21.28131865 98.56054688 19.51757812 C97.11421875 19.47890625 97.11421875 19.47890625 95.63867188 19.43945312 C94.37539063 19.38273437 93.11210937 19.32601562 91.81054688 19.26757812 C90.55757813 19.22117187 89.30460937 19.17476562 88.01367188 19.12695312 C84.56054688 18.51757812 84.56054688 18.51757812 82.13867188 16.78320312 C80.29057367 14.12999283 80.02141928 12.7260409 80.06054688 9.51757812 C80.04507813 8.24914062 80.04507813 8.24914062 80.02929688 6.95507812 C80.78619851 3.48223535 81.62295609 2.59003229 84.56054688 0.51757812 C88.28420986 -0.09865835 91.98102941 -0.0424332 95.74804688 -0.01367188 C97.39003052 -0.01941223 97.39003052 -0.01941223 99.06518555 -0.02526855 C101.37842733 -0.02798924 103.69169979 -0.02061721 106.00488281 -0.00390625 C109.5475721 0.01749973 113.08823324 -0.00370413 116.63085938 -0.02929688 C118.87825969 -0.02665363 121.12565874 -0.02152872 123.37304688 -0.01367188 C124.43354248 -0.0217688 125.49403809 -0.02986572 126.58666992 -0.03820801 C133.89947863 0.05513304 133.89947863 0.05513304 137.2265625 2.38256836 C138.92357438 5.09859488 139.09527656 6.88928852 139.06054688 10.08007812 C139.07601562 11.50513672 139.07601562 11.50513672 139.09179688 12.95898438 C138.56054688 15.51757812 138.56054688 15.51757812 136.91796875 17.13452148 C133.95947625 18.87021535 131.72064225 19.01974685 128.31054688 19.20507812 C127.23289062 19.27082031 126.15523437 19.3365625 125.04492188 19.40429688 C124.22507812 19.44167969 123.40523437 19.4790625 122.56054688 19.51757812 C113.64588365 39.9435246 104.78209341 60.39289732 96.18554688 80.95507812 C93.58886064 87.16228836 90.86400612 93.29022344 88.00195312 99.38085938 C85.87269967 104.01443803 83.91470706 108.71639994 81.95507812 113.42382812 C79.58655968 118.67835643 77.84275389 121.94089177 72.56054688 124.51757812 C66.82857121 126.22295931 61.43668445 126.10194885 55.74804688 124.33007812 C48.97665572 120.47967923 46.7195512 113.93014393 43.74804688 107.08007812 C43.25667236 105.96205811 42.76529785 104.84403809 42.2590332 103.69213867 C35.28690861 87.77379964 28.53521099 71.75725491 21.74682617 55.76000977 C21.0230352 54.05481422 21.0230352 54.05481422 20.28462219 52.31517029 C19.34110477 50.09216158 18.39797046 47.86899023 17.45524597 45.64564514 C14.52615566 38.74968987 11.55849651 31.87239284 8.47953796 25.04182434 C6.56054688 20.73240776 6.56054688 20.73240776 6.56054688 18.51757812 C5.33078125 18.56978516 5.33078125 18.56978516 4.07617188 18.62304688 C2.99851562 18.65011719 1.92085938 18.6771875 0.81054688 18.70507812 C-0.79046875 18.75728516 -0.79046875 18.75728516 -2.42382812 18.81054688 C-5.82673124 18.47995396 -7.16085871 18.05658333 -9.43945312 15.51757812 C-9.97070312 12.95898438 -9.97070312 12.95898438 -9.93945312 10.08007812 C-9.94976562 9.13261719 -9.96007812 8.18515625 -9.97070312 7.20898438 C-8.86482282 1.60639959 -5.36031975 0.01784138 0 0 Z " fill="#FDFDFC" transform="translate(345.439453125,61.482421875)"/>
<path d="M0 0 C1.40378906 -0.02126953 1.40378906 -0.02126953 2.8359375 -0.04296875 C6.76109179 0.28137873 9.52222048 1.00046541 12.24829102 3.93481445 C13.91506967 6.66213607 13.99861129 8.29044738 13.98828125 11.46875 C13.98763672 12.47550781 13.98699219 13.48226563 13.98632812 14.51953125 C13.97021484 15.56496094 13.95410156 16.61039063 13.9375 17.6875 C13.94233398 19.25564453 13.94233398 19.25564453 13.94726562 20.85546875 C13.88601024 29.55373354 13.88601024 29.55373354 11.625 33.1875 C8.22365564 35.6619191 4.78912677 35.48686779 0.6875 35.5 C-0.51777344 35.51675781 -1.72304688 35.53351562 -2.96484375 35.55078125 C-6.6089895 35.16257328 -8.47596822 34.38179477 -11.375 32.1875 C-13.48570592 27.96608817 -12.64876262 22.45065515 -12.6875 17.8125 C-12.71650391 16.66265625 -12.74550781 15.5128125 -12.77539062 14.328125 C-12.78376953 13.22210938 -12.79214844 12.11609375 -12.80078125 10.9765625 C-12.81536377 9.96287598 -12.82994629 8.94918945 -12.8449707 7.90478516 C-12.24889276 4.45837089 -11.08981063 3.32413664 -8.375 1.1875 C-5.33978606 0.17576202 -3.17766921 0.02176486 0 0 Z " fill="#FCFCFC" transform="translate(273.375,3.8125)"/>
<path d="M0 0 C1.40378906 -0.02126953 1.40378906 -0.02126953 2.8359375 -0.04296875 C6.76109179 0.28137873 9.52222048 1.00046541 12.24829102 3.93481445 C13.91506967 6.66213607 13.99861129 8.29044738 13.98828125 11.46875 C13.98763672 12.47550781 13.98699219 13.48226563 13.98632812 14.51953125 C13.97021484 15.56496094 13.95410156 16.61039063 13.9375 17.6875 C13.94233398 19.25564453 13.94233398 19.25564453 13.94726562 20.85546875 C13.88601024 29.55373354 13.88601024 29.55373354 11.625 33.1875 C8.22365564 35.6619191 4.78912677 35.48686779 0.6875 35.5 C-0.51777344 35.51675781 -1.72304687 35.53351562 -2.96484375 35.55078125 C-6.6089895 35.16257328 -8.47596822 34.38179477 -11.375 32.1875 C-13.48570592 27.96608817 -12.64876262 22.45065515 -12.6875 17.8125 C-12.71650391 16.66265625 -12.74550781 15.5128125 -12.77539062 14.328125 C-12.78376953 13.22210938 -12.79214844 12.11609375 -12.80078125 10.9765625 C-12.81536377 9.96287598 -12.82994629 8.94918945 -12.8449707 7.90478516 C-12.24889276 4.45837089 -11.08981063 3.32413664 -8.375 1.1875 C-5.33978606 0.17576202 -3.17766921 0.02176486 0 0 Z " fill="#FCFCFC" transform="translate(218.375,3.8125)"/>
<path d="" fill="#000000" transform="translate(0,0)"/>
<path d="" fill="#000000" transform="translate(0,0)"/>
<path d="" fill="#000000" transform="translate(0,0)"/>
<path d="" fill="#000000" transform="translate(0,0)"/>
<path d="" fill="#000000" transform="translate(0,0)"/>
<path d="" fill="#000000" transform="translate(0,0)"/>
<path d="" fill="#000000" transform="translate(0,0)"/>
<path d="" fill="#000000" transform="translate(0,0)"/>
<path d="" fill="#000000" transform="translate(0,0)"/>
<path d="" fill="#000000" transform="translate(0,0)"/>
<path d="" fill="#000000" transform="translate(0,0)"/>
<path d="" fill="#000000" transform="translate(0,0)"/>
<path d="" fill="#000000" transform="translate(0,0)"/>
<path d="" fill="#000000" transform="translate(0,0)"/>
<path d="" fill="#000000" transform="translate(0,0)"/>
<path d="" fill="#000000" transform="translate(0,0)"/>
<path d="" fill="#000000" transform="translate(0,0)"/>
<path d="" fill="#000000" transform="translate(0,0)"/>
<path d="" fill="#000000" transform="translate(0,0)"/>
<path d="" fill="#000000" transform="translate(0,0)"/>
<path d="" fill="#000000" transform="translate(0,0)"/>
<path d="" fill="#000000" transform="translate(0,0)"/>
</svg>
